<svg xmlns="http://www.w3.org/2000/svg" width="225" height="19" viewBox="0 0 225 19" fill="none"><path d="M14.7969 0.621094L4.97656 18.2344H0.945312L10.7656 0.621094H14.7969ZM32.2344 0.621094L22.4141 18.2344H18.3828L28.2031 0.621094H32.2344ZM49.6719 0.621094L39.8516 18.2344H35.8203L45.6406 0.621094H49.6719ZM67.1094 0.621094L57.2891 18.2344H53.2578L63.0781 0.621094H67.1094ZM84.5469 0.621094L74.7266 18.2344H70.6953L80.5156 0.621094H84.5469ZM101.984 0.621094L92.1641 18.2344H88.1328L97.9531 0.621094H101.984ZM119.422 0.621094L109.602 18.2344H105.57L115.391 0.621094H119.422ZM136.859 0.621094L127.039 18.2344H123.008L132.828 0.621094H136.859ZM154.297 0.621094L144.477 18.2344H140.445L150.266 0.621094H154.297ZM171.734 0.621094L161.914 18.2344H157.883L167.703 0.621094H171.734ZM189.172 0.621094L179.352 18.2344H175.32L185.141 0.621094H189.172ZM206.609 0.621094L196.789 18.2344H192.758L202.578 0.621094H206.609ZM224.047 0.621094L214.227 18.2344H210.195L220.016 0.621094H224.047Z" fill="#3BC8D2"></path></svg>