<svg xmlns="http://www.w3.org/2000/svg" width="213" height="19" viewBox="0 0 213 19" fill="none"><path d="M10.5586 0.621094L4.17188 18.2344H0.117188L6.50391 0.621094H10.5586ZM27.4102 0.621094L21.0234 18.2344H16.9688L23.3555 0.621094H27.4102ZM44.2617 0.621094L37.875 18.2344H33.8203L40.207 0.621094H44.2617ZM61.1133 0.621094L54.7266 18.2344H50.6719L57.0586 0.621094H61.1133ZM77.9648 0.621094L71.5781 18.2344H67.5234L73.9102 0.621094H77.9648ZM94.8164 0.621094L88.4297 18.2344H84.375L90.7617 0.621094H94.8164ZM111.668 0.621094L105.281 18.2344H101.227L107.613 0.621094H111.668ZM128.52 0.621094L122.133 18.2344H118.078L124.465 0.621094H128.52ZM145.371 0.621094L138.984 18.2344H134.93L141.316 0.621094H145.371ZM162.223 0.621094L155.836 18.2344H151.781L158.168 0.621094H162.223ZM179.074 0.621094L172.688 18.2344H168.633L175.02 0.621094H179.074ZM195.926 0.621094L189.539 18.2344H185.484L191.871 0.621094H195.926ZM212.777 0.621094L206.391 18.2344H202.336L208.723 0.621094H212.777Z" fill="#E11222"></path></svg>