<svg xmlns="http://www.w3.org/2000/svg" width="60" height="60" viewBox="0 0 60 60" fill="none"><circle cx="30" cy="30" r="30" fill="#E11222"></circle><path d="M37.3368 34.9L37.0128 36.52H26.6088C32.4048 33.712 39.3168 30.832 39.3168 25.072C39.3168 18.988 33.3768 17.44 28.9128 17.44C23.5848 17.44 20.2368 20.14 20.2368 22.66C20.2368 24.352 21.3168 25.54 23.2968 25.54C25.1688 25.54 26.1768 24.352 26.1768 22.84C26.1768 21.796 25.6728 20.716 23.9088 20.428C24.4128 19.924 26.0688 19.42 27.2568 19.42C29.9568 19.42 31.7568 20.968 31.7568 24.64C31.7568 29.608 28.6248 33.64 20.4168 38.68V43H39.1368V34.9H37.3368Z" fill="white"></path></svg>