<svg xmlns="http://www.w3.org/2000/svg" width="171" height="14" viewBox="0 0 171 14" fill="none"><path d="M0.078125 9.91895L7.34375 6.96582L0.078125 3.64941V0.168945L11.9258 6.09863V8.11426L0.078125 13.376V9.91895ZM19.9062 9.91895L27.1719 6.96582L19.9062 3.64941V0.168945L31.7539 6.09863V8.11426L19.9062 13.376V9.91895ZM39.7344 9.91895L47 6.96582L39.7344 3.64941V0.168945L51.582 6.09863V8.11426L39.7344 13.376V9.91895ZM59.5625 9.91895L66.8281 6.96582L59.5625 3.64941V0.168945L71.4102 6.09863V8.11426L59.5625 13.376V9.91895ZM79.3906 9.91895L86.6562 6.96582L79.3906 3.64941V0.168945L91.2383 6.09863V8.11426L79.3906 13.376V9.91895ZM99.2188 9.91895L106.484 6.96582L99.2188 3.64941V0.168945L111.066 6.09863V8.11426L99.2188 13.376V9.91895ZM119.047 9.91895L126.312 6.96582L119.047 3.64941V0.168945L130.895 6.09863V8.11426L119.047 13.376V9.91895ZM138.875 9.91895L146.141 6.96582L138.875 3.64941V0.168945L150.723 6.09863V8.11426L138.875 13.376V9.91895ZM158.703 9.91895L165.969 6.96582L158.703 3.64941V0.168945L170.551 6.09863V8.11426L158.703 13.376V9.91895Z" fill="#FEBE4B"></path></svg>