<svg xmlns="http://www.w3.org/2000/svg" width="60" height="60" viewBox="0 0 60 60" fill="none"><circle cx="30" cy="30" r="30" fill="#E11222"></circle><path d="M26.7889 30.4C30.6049 30.4 32.4769 32.2 32.4769 35.8C32.4769 39.724 30.6769 41.38 27.9769 41.38C26.7889 41.38 25.1329 40.84 24.6289 40.336C26.3929 40.084 26.8969 38.968 26.8969 37.96C26.8969 36.448 25.8889 35.26 24.0169 35.26C22.0369 35.26 20.9569 36.448 20.9569 38.14C20.9569 40.624 24.1249 43.36 29.4529 43.36C33.9169 43.36 39.6769 41.632 39.6769 36.196C39.6769 31.912 36.4369 30.04 31.6849 29.428C35.6809 28.348 38.9929 26.584 38.9929 22.984C38.9929 19.06 34.6369 17.44 29.9209 17.44C24.7729 17.44 21.8569 19.96 21.8569 22.336C21.8569 23.956 22.9009 25.144 24.8449 25.144C26.7169 25.144 27.6889 23.956 27.6889 22.48C27.6889 21.508 27.2209 20.428 25.4929 20.14C25.9609 19.78 27.3289 19.384 28.3009 19.384C30.4249 19.384 32.4049 20.068 32.4049 23.344C32.4049 26.008 30.7129 28.312 26.7889 29.14V30.4Z" fill="white"></path></svg>