<svg xmlns="http://www.w3.org/2000/svg" id="Layer_1" data-name="Layer 1" viewBox="0 0 212.52 17.61"><defs><style>.cls-1{fill:#fff;}</style></defs><path class="cls-1" d="M10.44,0,4.05,17.61H0L6.39,0Z"></path><path class="cls-1" d="M27.28,0,20.89,17.61H16.84L23.23,0Z"></path><path class="cls-1" d="M44.12,0,37.73,17.61h-4L40.07,0Z"></path><path class="cls-1" d="M61,0,54.57,17.61h-4L56.91,0Z"></path><path class="cls-1" d="M77.8,0,71.41,17.61h-4L73.75,0Z"></path><path class="cls-1" d="M94.64,0,88.25,17.61h-4L90.59,0Z"></path><path class="cls-1" d="M111.48,0l-6.39,17.61h-4L107.43,0Z"></path><path class="cls-1" d="M128.32,0l-6.39,17.61h-4.05L124.27,0Z"></path><path class="cls-1" d="M145.16,0l-6.39,17.61h-4.05L141.11,0Z"></path><path class="cls-1" d="M162,0l-6.39,17.61h-4.05L158,0Z"></path><path class="cls-1" d="M178.84,0l-6.39,17.61h-4L174.79,0Z"></path><path class="cls-1" d="M195.68,0l-6.39,17.61h-4L191.62,0Z"></path><path class="cls-1" d="M212.52,0l-6.39,17.61h-4L208.46,0Z"></path></svg>