<svg xmlns="http://www.w3.org/2000/svg" xmlns:xlink="http://www.w3.org/1999/xlink" id="Layer_1" x="0px" y="0px" viewBox="0 0 212.5 17.6" style="enable-background:new 0 0 212.5 17.6;" xml:space="preserve">
<style type="text/css">
	.st0{fill:#FFFFFF;}
</style>
<path class="st0" d="M10.4,0L4.1,17.6H0L6.4,0H10.4z M27.3,0l-6.4,17.6h-4L23.2,0H27.3z M44.1,0l-6.4,17.6h-4L40.1,0H44.1z M61,0  l-6.4,17.6h-4L56.9,0H61z M77.8,0l-6.4,17.6h-4L73.8,0H77.8z M94.6,0l-6.4,17.6h-4L90.6,0H94.6z M111.5,0l-6.4,17.6h-4L107.4,0  H111.5z M128.3,0l-6.4,17.6h-4.1L124.3,0H128.3z M145.2,0l-6.4,17.6h-4.1L141.1,0H145.2z M162,0l-6.4,17.6h-4.1L158,0H162z M178.8,0  l-6.4,17.6h-4L174.8,0H178.8z M195.7,0l-6.4,17.6h-4L191.6,0H195.7z M212.5,0l-6.4,17.6h-4L208.5,0H212.5z"></path>
</svg>